# Blender 3.3.1
# www.blender.org
mtllib KleinBottle.mtl
o Text
v -1.092647 0.113143 0.053235
v -1.094491 0.114046 0.064450
v -0.970237 0.227213 0.152261
v -0.964397 0.224351 0.116749
v -1.039356 0.156194 0.064325
v -0.949705 0.217151 0.027408
v -0.943742 0.214229 -0.008852
vn -0.5996 0.7838 -0.1618
vt 0.000000 0.000000
vt 0.166667 0.000000
vt 0.333333 0.000000
vt 0.500000 0.000000
vt 0.666667 0.000000
vt 0.833333 0.000000
vt 1.000000 0.000000
s 0
usemtl text
f 1/1/1 6/6/1 7/7/1
f 1/1/1 5/5/1 6/6/1
f 5/5/1 3/3/1 4/4/1
f 5/5/1 2/2/1 3/3/1
f 1/1/1 2/2/1 5/5/1
o Text.001
v 0.179634 0.178974 -0.811944
v 0.182711 0.179243 -0.819902
v 0.185460 0.179432 -0.827720
v 0.187884 0.179538 -0.835407
v 0.189984 0.179564 -0.842968
v 0.191761 0.179508 -0.850411
v 0.193217 0.179371 -0.857743
v 0.194354 0.179152 -0.864970
v 0.195173 0.178851 -0.872100
v 0.195675 0.178468 -0.879139
v 0.195863 0.178004 -0.886095
v 0.195738 0.177458 -0.892975
v 0.195301 0.176830 -0.899785
v 0.193478 0.175279 -0.913801
v 0.190572 0.173504 -0.926765
v 0.186625 0.171519 -0.938623
v 0.181675 0.169340 -0.949321
v 0.175762 0.166981 -0.958804
v 0.168926 0.164459 -0.967019
v 0.161206 0.161789 -0.973911
v 0.152644 0.158985 -0.979425
v 0.143278 0.156062 -0.983507
v 0.133147 0.153036 -0.986103
v 0.122293 0.149922 -0.987159
v 0.110755 0.146735 -0.986620
v 0.093197 0.142174 -0.981923
v 0.078086 0.138629 -0.972751
v 0.065087 0.135940 -0.960017
v 0.053864 0.133944 -0.944634
v 0.044080 0.132480 -0.927514
v 0.035400 0.131385 -0.909569
v 0.027488 0.130499 -0.891711
v 0.020007 0.129659 -0.874854
v 0.012623 0.128704 -0.859909
v 0.004998 0.127472 -0.847788
v -0.003203 0.125802 -0.839405
v -0.012316 0.123530 -0.835671
v -0.017152 0.122189 -0.835518
v -0.021664 0.120880 -0.836162
v -0.025846 0.119607 -0.837550
v -0.029694 0.118377 -0.839628
v -0.033204 0.117194 -0.842342
v -0.036370 0.116063 -0.845639
v -0.039188 0.114991 -0.849464
v -0.041653 0.113982 -0.853764
v -0.043761 0.113042 -0.858486
v -0.045506 0.112176 -0.863574
v -0.046885 0.111389 -0.868976
v -0.047892 0.110687 -0.874638
v -0.048171 0.110158 -0.880700
v -0.047989 0.109723 -0.887249
v -0.047339 0.109384 -0.894259
v -0.046215 0.109145 -0.901703
v -0.044609 0.109011 -0.909555
v -0.042515 0.108985 -0.917789
v -0.039926 0.109071 -0.926379
v -0.036836 0.109272 -0.935297
v -0.033239 0.109594 -0.944517
v -0.029126 0.110038 -0.954014
v -0.024492 0.110610 -0.963760
v -0.019330 0.111313 -0.973730
v -0.079291 0.095053 -0.966887
v -0.082930 0.094754 -0.957212
v -0.086122 0.094550 -0.947935
v -0.088879 0.094443 -0.938992
v -0.091213 0.094435 -0.930322
v -0.093136 0.094525 -0.921862
v -0.094660 0.094717 -0.913549
v -0.095797 0.095010 -0.905322
v -0.096560 0.095406 -0.897116
v -0.096960 0.095907 -0.888871
v -0.097009 0.096513 -0.880523
v -0.096719 0.097227 -0.872009
v -0.096103 0.098048 -0.863269
v -0.094252 0.099556 -0.849941
v -0.091140 0.101355 -0.837447
v -0.086834 0.103419 -0.825873
v -0.081399 0.105724 -0.815304
v -0.074904 0.108244 -0.805825
v -0.067413 0.110956 -0.797521
v -0.058995 0.113833 -0.790477
v -0.049715 0.116852 -0.784779
v -0.039640 0.119987 -0.780512
v -0.028837 0.123212 -0.777760
v -0.017372 0.126504 -0.776610
v -0.005311 0.129837 -0.777146
v 0.001656 0.131699 -0.778316
v 0.008237 0.133398 -0.780220
v 0.014500 0.134949 -0.782911
v 0.020511 0.136368 -0.786443
v 0.026340 0.137669 -0.790869
v 0.032053 0.138868 -0.796242
v 0.037718 0.139979 -0.802614
v 0.043403 0.141017 -0.810038
v 0.049175 0.141998 -0.818568
v 0.055102 0.142936 -0.828257
v 0.061252 0.143846 -0.839157
v 0.067693 0.144743 -0.851322
v 0.073539 0.145421 -0.864206
v 0.078963 0.146080 -0.875754
v 0.084001 0.146727 -0.886013
v 0.088687 0.147368 -0.895030
v 0.093057 0.148009 -0.902852
v 0.097146 0.148656 -0.909526
v 0.100989 0.149317 -0.915099
v 0.104622 0.149998 -0.919618
v 0.108081 0.150704 -0.923130
v 0.111400 0.151442 -0.925682
v 0.114614 0.152220 -0.927321
v 0.117760 0.153042 -0.928095
v 0.121439 0.154063 -0.928206
v 0.124967 0.155087 -0.927698
v 0.128320 0.156107 -0.926591
v 0.131473 0.157114 -0.924903
v 0.134403 0.158100 -0.922657
v 0.137088 0.159058 -0.919870
v 0.139502 0.159979 -0.916564
v 0.141622 0.160855 -0.912758
v 0.143426 0.161677 -0.908472
v 0.144888 0.162439 -0.903726
v 0.145986 0.163131 -0.898540
v 0.146695 0.163746 -0.892934
v 0.146992 0.164240 -0.887404
v 0.146945 0.164667 -0.881478
v 0.146541 0.165021 -0.875182
v 0.145766 0.165298 -0.868538
v 0.144607 0.165492 -0.861569
v 0.143052 0.165597 -0.854299
v 0.141088 0.165608 -0.846752
v 0.138701 0.165521 -0.838951
v 0.135879 0.165328 -0.830918
v 0.132608 0.165025 -0.822679
v 0.128876 0.164607 -0.814255
v 0.124669 0.164069 -0.805671
vn -0.2686 0.9606 -0.0714
vt 0.000000 0.000000
vt 0.007519 0.000000
vt 0.015038 0.000000
vt 0.022556 0.000000
vt 0.030075 0.000000
vt 0.037594 0.000000
vt 0.045113 0.000000
vt 0.052632 0.000000
vt 0.060150 0.000000
vt 0.067669 0.000000
vt 0.075188 0.000000
vt 0.082707 0.000000
vt 0.090226 0.000000
vt 0.097744 0.000000
vt 0.105263 0.000000
vt 0.112782 0.000000
vt 0.120301 0.000000
vt 0.127820 0.000000
vt 0.135338 0.000000
vt 0.142857 0.000000
vt 0.150376 0.000000
vt 0.157895 0.000000
vt 0.165414 0.000000
vt 0.172932 0.000000
vt 0.180451 0.000000
vt 0.187970 0.000000
vt 0.195489 0.000000
vt 0.203008 0.000000
vt 0.210526 0.000000
vt 0.218045 0.000000
vt 0.225564 0.000000
vt 0.233083 0.000000
vt 0.240602 0.000000
vt 0.248120 0.000000
vt 0.255639 0.000000
vt 0.263158 0.000000
vt 0.270677 0.000000
vt 0.278196 0.000000
vt 0.285714 0.000000
vt 0.293233 0.000000
vt 0.300752 0.000000
vt 0.308271 0.000000
vt 0.315789 0.000000
vt 0.323308 0.000000
vt 0.330827 0.000000
vt 0.338346 0.000000
vt 0.345865 0.000000
vt 0.353383 0.000000
vt 0.360902 0.000000
vt 0.368421 0.000000
vt 0.375940 0.000000
vt 0.383459 0.000000
vt 0.390977 0.000000
vt 0.398496 0.000000
vt 0.406015 0.000000
vt 0.413534 0.000000
vt 0.421053 0.000000
vt 0.428571 0.000000
vt 0.436090 0.000000
vt 0.443609 0.000000
vt 0.451128 0.000000
vt 0.458647 0.000000
vt 0.466165 0.000000
vt 0.473684 0.000000
vt 0.481203 0.000000
vt 0.488722 0.000000
vt 0.496241 0.000000
vt 0.503759 0.000000
vt 0.511278 0.000000
vt 0.518797 0.000000
vt 0.526316 0.000000
vt 0.533835 0.000000
vt 0.541353 0.000000
vt 0.548872 0.000000
vt 0.556391 0.000000
vt 0.563910 0.000000
vt 0.571429 0.000000
vt 0.578947 0.000000
vt 0.586466 0.000000
vt 0.593985 0.000000
vt 0.601504 0.000000
vt 0.609023 0.000000
vt 0.616541 0.000000
vt 0.624060 0.000000
vt 0.631579 0.000000
vt 0.639098 0.000000
vt 0.646617 0.000000
vt 0.654135 0.000000
vt 0.661654 0.000000
vt 0.669173 0.000000
vt 0.676692 0.000000
vt 0.684211 0.000000
vt 0.691729 0.000000
vt 0.699248 0.000000
vt 0.706767 0.000000
vt 0.714286 0.000000
vt 0.721804 0.000000
vt 0.729323 0.000000
vt 0.736842 0.000000
vt 0.744361 0.000000
vt 0.751880 0.000000
vt 0.759399 0.000000
vt 0.766917 0.000000
vt 0.774436 0.000000
vt 0.781955 0.000000
vt 0.789474 0.000000
vt 0.796992 0.000000
vt 0.804511 0.000000
vt 0.812030 0.000000
vt 0.819549 0.000000
vt 0.827068 0.000000
vt 0.834586 0.000000
vt 0.842105 0.000000
vt 0.849624 0.000000
vt 0.857143 0.000000
vt 0.864662 0.000000
vt 0.872180 0.000000
vt 0.879699 0.000000
vt 0.887218 0.000000
vt 0.894737 0.000000
vt 0.902256 0.000000
vt 0.909774 0.000000
vt 0.917293 0.000000
vt 0.924812 0.000000
vt 0.932331 0.000000
vt 0.939850 0.000000
vt 0.947368 0.000000
vt 0.954887 0.000000
vt 0.962406 0.000000
vt 0.969925 0.000000
vt 0.977444 0.000000
vt 0.984962 0.000000
vt 0.992481 0.000000
vt 1.000000 0.000000
s 0
usemtl text
f 21/21/2 19/19/2 20/20/2
f 21/21/2 18/18/2 19/19/2
f 22/22/2 18/18/2 21/21/2
f 22/22/2 17/17/2 18/18/2
f 22/22/2 16/16/2 17/17/2
f 23/23/2 16/16/2 22/22/2
f 23/23/2 15/15/2 16/16/2
f 23/23/2 14/14/2 15/15/2
f 24/24/2 14/14/2 23/23/2
f 24/24/2 13/13/2 14/14/2
f 24/24/2 12/12/2 13/13/2
f 25/25/2 12/12/2 24/24/2
f 25/25/2 11/11/2 12/12/2
f 25/25/2 10/10/2 11/11/2
f 26/26/2 10/10/2 25/25/2
f 26/26/2 9/9/2 10/10/2
f 26/26/2 8/8/2 9/9/2
f 27/27/2 8/8/2 26/26/2
f 27/27/2 133/133/2 8/8/2
f 133/133/2 134/134/2 8/8/2
f 134/134/2 135/135/2 8/8/2
f 135/135/2 136/136/2 8/8/2
f 136/136/2 137/137/2 8/8/2
f 137/137/2 138/138/2 8/8/2
f 138/138/2 139/139/2 8/8/2
f 139/139/2 140/140/2 8/8/2
f 140/140/2 141/141/2 8/8/2
f 28/28/2 131/131/2 27/27/2
f 131/131/2 132/132/2 27/27/2
f 132/132/2 133/133/2 27/27/2
f 29/29/2 130/130/2 28/28/2
f 130/130/2 131/131/2 28/28/2
f 30/30/2 128/128/2 29/29/2
f 128/128/2 129/129/2 29/29/2
f 129/129/2 130/130/2 29/29/2
f 30/30/2 127/127/2 128/128/2
f 30/30/2 126/126/2 127/127/2
f 30/30/2 125/125/2 126/126/2
f 30/30/2 124/124/2 125/125/2
f 30/30/2 123/123/2 124/124/2
f 31/31/2 123/123/2 30/30/2
f 31/31/2 122/122/2 123/123/2
f 31/31/2 121/121/2 122/122/2
f 31/31/2 120/120/2 121/121/2
f 31/31/2 119/119/2 120/120/2
f 32/32/2 119/119/2 31/31/2
f 32/32/2 118/118/2 119/119/2
f 32/32/2 117/117/2 118/118/2
f 32/32/2 116/116/2 117/117/2
f 33/33/2 116/116/2 32/32/2
f 33/33/2 115/115/2 116/116/2
f 33/33/2 114/114/2 115/115/2
f 33/33/2 113/113/2 114/114/2
f 33/33/2 112/112/2 113/113/2
f 33/33/2 111/111/2 112/112/2
f 34/34/2 111/111/2 33/33/2
f 34/34/2 110/110/2 111/111/2
f 34/34/2 109/109/2 110/110/2
f 34/34/2 108/108/2 109/109/2
f 35/35/2 108/108/2 34/34/2
f 35/35/2 107/107/2 108/108/2
f 35/35/2 106/106/2 107/107/2
f 35/35/2 105/105/2 106/106/2
f 36/36/2 105/105/2 35/35/2
f 36/36/2 104/104/2 105/105/2
f 37/37/2 104/104/2 36/36/2
f 37/37/2 103/103/2 104/104/2
f 37/37/2 102/102/2 103/103/2
f 38/38/2 102/102/2 37/37/2
f 38/38/2 101/101/2 102/102/2
f 39/39/2 101/101/2 38/38/2
f 39/39/2 100/100/2 101/101/2
f 39/39/2 99/99/2 100/100/2
f 40/40/2 99/99/2 39/39/2
f 40/40/2 98/98/2 99/99/2
f 41/41/2 98/98/2 40/40/2
f 41/41/2 97/97/2 98/98/2
f 41/41/2 96/96/2 97/97/2
f 42/42/2 96/96/2 41/41/2
f 42/42/2 95/95/2 96/96/2
f 43/43/2 95/95/2 42/42/2
f 43/43/2 94/94/2 95/95/2
f 44/44/2 94/94/2 43/43/2
f 44/44/2 93/93/2 94/94/2
f 69/69/2 67/67/2 68/68/2
f 44/44/2 92/92/2 93/93/2
f 45/45/2 92/92/2 44/44/2
f 69/69/2 66/66/2 67/67/2
f 46/46/2 92/92/2 45/45/2
f 69/69/2 65/65/2 66/66/2
f 47/47/2 92/92/2 46/46/2
f 47/47/2 91/91/2 92/92/2
f 69/69/2 64/64/2 65/65/2
f 48/48/2 91/91/2 47/47/2
f 69/69/2 63/63/2 64/64/2
f 49/49/2 91/91/2 48/48/2
f 69/69/2 62/62/2 63/63/2
f 50/50/2 91/91/2 49/49/2
f 50/50/2 90/90/2 91/91/2
f 69/69/2 61/61/2 62/62/2
f 51/51/2 90/90/2 50/50/2
f 52/52/2 90/90/2 51/51/2
f 69/69/2 60/60/2 61/61/2
f 53/53/2 90/90/2 52/52/2
f 69/69/2 59/59/2 60/60/2
f 54/54/2 90/90/2 53/53/2
f 69/69/2 58/58/2 59/59/2
f 55/55/2 90/90/2 54/54/2
f 69/69/2 57/57/2 58/58/2
f 56/56/2 90/90/2 55/55/2
f 69/69/2 56/56/2 57/57/2
f 56/56/2 89/89/2 90/90/2
f 69/69/2 89/89/2 56/56/2
f 69/69/2 88/88/2 89/89/2
f 69/69/2 87/87/2 88/88/2
f 70/70/2 87/87/2 69/69/2
f 70/70/2 86/86/2 87/87/2
f 71/71/2 86/86/2 70/70/2
f 72/72/2 86/86/2 71/71/2
f 72/72/2 85/85/2 86/86/2
f 73/73/2 85/85/2 72/72/2
f 74/74/2 85/85/2 73/73/2
f 74/74/2 84/84/2 85/85/2
f 75/75/2 84/84/2 74/74/2
f 75/75/2 83/83/2 84/84/2
f 76/76/2 83/83/2 75/75/2
f 77/77/2 83/83/2 76/76/2
f 77/77/2 82/82/2 83/83/2
f 78/78/2 82/82/2 77/77/2
f 79/79/2 82/82/2 78/78/2
f 79/79/2 81/81/2 82/82/2
f 80/80/2 81/81/2 79/79/2
o Text.002
v 0.172329 0.235570 1.013352
v 0.078018 0.200961 0.902391
v 0.072236 0.198198 0.902124
v 0.072263 0.193327 0.951916
v -0.064778 0.127841 0.945585
v -0.076221 0.122310 0.945708
v -0.087079 0.116930 0.947159
v -0.097273 0.111739 0.949939
v -0.106726 0.106776 0.954050
v -0.115359 0.102077 0.959494
v -0.123094 0.097681 0.966271
v -0.129853 0.093625 0.974383
v -0.135556 0.089947 0.983832
v -0.140127 0.086684 0.994619
v -0.143486 0.083874 1.006745
v -0.145556 0.081555 1.020211
v -0.146257 0.079764 1.035020
v -0.146101 0.079361 1.039895
v -0.145649 0.079057 1.045209
v -0.144920 0.078853 1.050881
v -0.143932 0.078745 1.056832
v -0.142703 0.078735 1.062979
v -0.141251 0.078821 1.069244
v -0.139594 0.079002 1.075544
v -0.137751 0.079278 1.081800
v -0.135739 0.079647 1.087931
v -0.133576 0.080109 1.093856
v -0.131281 0.080663 1.099494
v -0.128872 0.081308 1.104765
v -0.080879 0.104241 1.106982
v -0.083930 0.103343 1.101135
v -0.086716 0.102564 1.095376
v -0.089236 0.101905 1.089700
v -0.091492 0.101366 1.084103
v -0.093483 0.100948 1.078579
v -0.095208 0.100650 1.073126
v -0.096669 0.100474 1.067738
v -0.097865 0.100420 1.062412
v -0.098795 0.100488 1.057141
v -0.099460 0.100679 1.051923
v -0.099861 0.100993 1.046753
v -0.099996 0.101431 1.041626
v -0.099810 0.101941 1.037344
v -0.099217 0.102666 1.032873
v -0.098169 0.103617 1.028325
v -0.096622 0.104806 1.023813
v -0.094529 0.106244 1.019451
v -0.091843 0.107941 1.015351
v -0.088519 0.109910 1.011627
v -0.084510 0.112162 1.008391
v -0.079769 0.114707 1.005755
v -0.074251 0.117557 1.003834
v -0.067910 0.120724 1.002741
v -0.060699 0.124217 1.002587
v 0.072295 0.187768 1.008731
v 0.072345 0.178900 1.099379
v 0.118603 0.201004 1.101516
v 0.118553 0.209873 1.010868
vn -0.4328 0.8972 0.0880
vt 0.000000 0.000000
vt 0.017544 0.000000
vt 0.035088 0.000000
vt 0.052632 0.000000
vt 0.070175 0.000000
vt 0.087719 0.000000
vt 0.105263 0.000000
vt 0.122807 0.000000
vt 0.140351 0.000000
vt 0.157895 0.000000
vt 0.175439 0.000000
vt 0.192982 0.000000
vt 0.210526 0.000000
vt 0.228070 0.000000
vt 0.245614 0.000000
vt 0.263158 0.000000
vt 0.280702 0.000000
vt 0.298246 0.000000
vt 0.315789 0.000000
vt 0.333333 0.000000
vt 0.350877 0.000000
vt 0.368421 0.000000
vt 0.385965 0.000000
vt 0.403509 0.000000
vt 0.421053 0.000000
vt 0.438596 0.000000
vt 0.456140 0.000000
vt 0.473684 0.000000
vt 0.491228 0.000000
vt 0.508772 0.000000
vt 0.526316 0.000000
vt 0.543860 0.000000
vt 0.561404 0.000000
vt 0.578947 0.000000
vt 0.596491 0.000000
vt 0.614035 0.000000
vt 0.631579 0.000000
vt 0.649123 0.000000
vt 0.666667 0.000000
vt 0.684211 0.000000
vt 0.701754 0.000000
vt 0.719298 0.000000
vt 0.736842 0.000000
vt 0.754386 0.000000
vt 0.771930 0.000000
vt 0.789474 0.000000
vt 0.807018 0.000000
vt 0.824561 0.000000
vt 0.842105 0.000000
vt 0.859649 0.000000
vt 0.877193 0.000000
vt 0.894737 0.000000
vt 0.912281 0.000000
vt 0.929825 0.000000
vt 0.947368 0.000000
vt 0.964912 0.000000
vt 0.982456 0.000000
vt 1.000000 0.000000
s 0
usemtl text
f 143/143/3 199/199/3 142/142/3
f 143/143/3 198/198/3 199/199/3
f 143/143/3 197/197/3 198/198/3
f 144/144/3 197/197/3 143/143/3
f 145/145/3 197/197/3 144/144/3
f 146/146/3 196/196/3 145/145/3
f 196/196/3 197/197/3 145/145/3
f 146/146/3 195/195/3 196/196/3
f 146/146/3 194/194/3 195/195/3
f 147/147/3 194/194/3 146/146/3
f 147/147/3 193/193/3 194/194/3
f 147/147/3 192/192/3 193/193/3
f 148/148/3 192/192/3 147/147/3
f 148/148/3 191/191/3 192/192/3
f 172/172/3 170/170/3 171/171/3
f 173/173/3 170/170/3 172/172/3
f 148/148/3 190/190/3 191/191/3
f 174/174/3 170/170/3 173/173/3
f 149/149/3 190/190/3 148/148/3
f 149/149/3 189/189/3 190/190/3
f 175/175/3 170/170/3 174/174/3
f 176/176/3 170/170/3 175/175/3
f 149/149/3 188/188/3 189/189/3
f 177/177/3 170/170/3 176/176/3
f 149/149/3 187/187/3 188/188/3
f 178/178/3 170/170/3 177/177/3
f 149/149/3 186/186/3 187/187/3
f 179/179/3 170/170/3 178/178/3
f 150/150/3 186/186/3 149/149/3
f 180/180/3 170/170/3 179/179/3
f 150/150/3 185/185/3 186/186/3
f 181/181/3 170/170/3 180/180/3
f 150/150/3 184/184/3 185/185/3
f 182/182/3 170/170/3 181/181/3
f 150/150/3 183/183/3 184/184/3
f 183/183/3 170/170/3 182/182/3
f 150/150/3 170/170/3 183/183/3
f 151/151/3 170/170/3 150/150/3
f 152/152/3 170/170/3 151/151/3
f 153/153/3 170/170/3 152/152/3
f 153/153/3 169/169/3 170/170/3
f 154/154/3 169/169/3 153/153/3
f 154/154/3 168/168/3 169/169/3
f 154/154/3 167/167/3 168/168/3
f 155/155/3 167/167/3 154/154/3
f 155/155/3 166/166/3 167/167/3
f 155/155/3 165/165/3 166/166/3
f 155/155/3 164/164/3 165/165/3
f 156/156/3 164/164/3 155/155/3
f 156/156/3 163/163/3 164/164/3
f 156/156/3 162/162/3 163/163/3
f 157/157/3 162/162/3 156/156/3
f 157/157/3 161/161/3 162/162/3
f 157/157/3 160/160/3 161/161/3
f 158/158/3 160/160/3 157/157/3
f 158/158/3 159/159/3 160/160/3
o Text.003
v 0.402320 0.125751 0.180774
v 0.405080 0.126491 0.169203
v 0.406897 0.126978 0.158290
v 0.407814 0.127223 0.148005
v 0.407870 0.127238 0.138317
v 0.407106 0.127034 0.129198
v 0.405565 0.126621 0.120618
v 0.403285 0.126010 0.112546
v 0.400310 0.125213 0.104954
v 0.396679 0.124240 0.097811
v 0.392433 0.123102 0.091088
v 0.387615 0.121811 0.084755
v 0.382263 0.120377 0.078783
v 0.376866 0.118931 0.073480
v 0.371240 0.117424 0.068570
v 0.365303 0.115833 0.064069
v 0.358972 0.114136 0.059986
v 0.352167 0.112313 0.056337
v 0.344804 0.110340 0.053133
v 0.336802 0.108196 0.050387
v 0.328079 0.105858 0.048111
v 0.318553 0.103306 0.046319
v 0.308142 0.100516 0.045024
v 0.296764 0.097468 0.044237
v 0.284338 0.094138 0.043972
v 0.264870 0.088922 0.043972
v 0.264870 0.088922 0.005496
v 0.217678 0.076276 0.005496
v 0.217678 0.076276 0.043972
v 0.000000 0.017950 0.043972
v 0.000000 0.017950 0.098326
v 0.217678 0.076276 0.098326
v 0.217678 0.076276 0.147795
v 0.264870 0.088922 0.147795
v 0.264870 0.088922 0.098326
v 0.290237 0.095719 0.098326
v 0.300076 0.098355 0.098628
v 0.309220 0.100805 0.099570
v 0.317640 0.103061 0.101208
v 0.325304 0.105115 0.103597
v 0.332181 0.106958 0.106791
v 0.338241 0.108581 0.110846
v 0.343453 0.109978 0.115817
v 0.347786 0.111139 0.121760
v 0.351210 0.112056 0.128729
v 0.353693 0.112722 0.136779
v 0.355206 0.113127 0.145966
v 0.355717 0.113264 0.156345
v 0.355692 0.113257 0.158703
v 0.355613 0.113236 0.160911
v 0.355477 0.113200 0.162996
v 0.355280 0.113147 0.164985
v 0.355017 0.113077 0.166907
v 0.354685 0.112987 0.168788
v 0.354278 0.112879 0.170657
v 0.353794 0.112749 0.172540
v 0.353228 0.112597 0.174466
v 0.352576 0.112422 0.176462
v 0.351834 0.112224 0.178555
v 0.350998 0.112000 0.180774
vn -0.2588 0.9659 -0.0000
vt 0.000000 0.000000
vt 0.016949 0.000000
vt 0.033898 0.000000
vt 0.050847 0.000000
vt 0.067797 0.000000
vt 0.084746 0.000000
vt 0.101695 0.000000
vt 0.118644 0.000000
vt 0.135593 0.000000
vt 0.152542 0.000000
vt 0.169492 0.000000
vt 0.186441 0.000000
vt 0.203390 0.000000
vt 0.220339 0.000000
vt 0.237288 0.000000
vt 0.254237 0.000000
vt 0.271186 0.000000
vt 0.288136 0.000000
vt 0.305085 0.000000
vt 0.322034 0.000000
vt 0.338983 0.000000
vt 0.355932 0.000000
vt 0.372881 0.000000
vt 0.389830 0.000000
vt 0.406780 0.000000
vt 0.423729 0.000000
vt 0.440678 0.000000
vt 0.457627 0.000000
vt 0.474576 0.000000
vt 0.491525 0.000000
vt 0.508475 0.000000
vt 0.525424 0.000000
vt 0.542373 0.000000
vt 0.559322 0.000000
vt 0.576271 0.000000
vt 0.593220 0.000000
vt 0.610169 0.000000
vt 0.627119 0.000000
vt 0.644068 0.000000
vt 0.661017 0.000000
vt 0.677966 0.000000
vt 0.694915 0.000000
vt 0.711864 0.000000
vt 0.728814 0.000000
vt 0.745763 0.000000
vt 0.762712 0.000000
vt 0.779661 0.000000
vt 0.796610 0.000000
vt 0.813559 0.000000
vt 0.830508 0.000000
vt 0.847458 0.000000
vt 0.864407 0.000000
vt 0.881356 0.000000
vt 0.898305 0.000000
vt 0.915254 0.000000
vt 0.932203 0.000000
vt 0.949153 0.000000
vt 0.966102 0.000000
vt 0.983051 0.000000
vt 1.000000 0.000000
s 0
usemtl text
f 205/205/4 203/203/4 204/204/4
f 205/205/4 202/202/4 203/203/4
f 206/206/4 202/202/4 205/205/4
f 206/206/4 201/201/4 202/202/4
f 207/207/4 201/201/4 206/206/4
f 207/207/4 200/200/4 201/201/4
f 208/208/4 200/200/4 207/207/4
f 208/208/4 259/259/4 200/200/4
f 209/209/4 259/259/4 208/208/4
f 210/210/4 259/259/4 209/209/4
f 211/211/4 259/259/4 210/210/4
f 212/212/4 256/256/4 211/211/4
f 256/256/4 257/257/4 211/211/4
f 257/257/4 258/258/4 211/211/4
f 258/258/4 259/259/4 211/211/4
f 213/213/4 254/254/4 212/212/4
f 254/254/4 255/255/4 212/212/4
f 255/255/4 256/256/4 212/212/4
f 214/214/4 252/252/4 213/213/4
f 252/252/4 253/253/4 213/213/4
f 253/253/4 254/254/4 213/213/4
f 215/215/4 251/251/4 214/214/4
f 251/251/4 252/252/4 214/214/4
f 216/216/4 248/248/4 215/215/4
f 248/248/4 249/249/4 215/215/4
f 249/249/4 250/250/4 215/215/4
f 250/250/4 251/251/4 215/215/4
f 217/217/4 247/247/4 216/216/4
f 247/247/4 248/248/4 216/216/4
f 217/217/4 246/246/4 247/247/4
f 217/217/4 245/245/4 246/246/4
f 217/217/4 244/244/4 245/245/4
f 218/218/4 244/244/4 217/217/4
f 218/218/4 243/243/4 244/244/4
f 218/218/4 242/242/4 243/243/4
f 219/219/4 242/242/4 218/218/4
f 219/219/4 241/241/4 242/242/4
f 219/219/4 240/240/4 241/241/4
f 220/220/4 240/240/4 219/219/4
f 220/220/4 239/239/4 240/240/4
f 221/221/4 239/239/4 220/220/4
f 221/221/4 238/238/4 239/239/4
f 222/222/4 238/238/4 221/221/4
f 222/222/4 237/237/4 238/238/4
f 222/222/4 236/236/4 237/237/4
f 223/223/4 236/236/4 222/222/4
f 223/223/4 235/235/4 236/236/4
f 224/224/4 235/235/4 223/223/4
f 224/224/4 234/234/4 235/235/4
f 225/225/4 234/234/4 224/224/4
f 227/227/4 225/225/4 226/226/4
f 227/227/4 234/234/4 225/225/4
f 227/227/4 233/233/4 234/234/4
f 227/227/4 232/232/4 233/233/4
f 228/228/4 232/232/4 227/227/4
f 229/229/4 231/231/4 228/228/4
f 231/231/4 232/232/4 228/228/4
f 229/229/4 230/230/4 231/231/4
